<svg width="30" height="30" viewBox="0 0 30 30" fill="none" xmlns="http://www.w3.org/2000/svg">
<path d="M13.75 10V16.25L19.0625 19.4L20.025 17.8L15.625 15.1875V10H13.75ZM26.25 12.5V3.75L22.95 7.05C20.925 5.0125 18.1125 3.75 15 3.75C8.7875 3.75 3.75 8.7875 3.75 15C3.75 21.2125 8.7875 26.25 15 26.25C21.2125 26.25 26.25 21.2125 26.25 15H23.75C23.75 19.825 19.825 23.75 15 23.75C10.175 23.75 6.25 19.825 6.25 15C6.25 10.175 10.175 6.25 15 6.25C17.4125 6.25 19.6 7.2375 21.1875 8.8125L17.5 12.5H26.25Z" fill="#828282"/>
</svg>
