<svg width="153" height="77" viewBox="0 0 153 77" fill="none" xmlns="http://www.w3.org/2000/svg">
<path d="M31.1861 34.5946V44.8386H42.1321V34.5946H31.1861ZM40.0521 36.3366V43.0966H33.2661V36.3366H40.0521ZM47.0461 33.1386V46.5546H49.2301V33.1386H47.0461ZM34.0461 47.8546V56.3046H49.2301V47.8546H34.0461ZM47.0981 49.5966V54.5626H36.1521V49.5966H47.0981ZM54.922 35.6866V37.4286H65.556V35.6866H54.922ZM58.588 42.3946V50.3506H60.72V42.3946H58.588ZM64.672 35.6866V36.9346C64.672 38.8326 64.672 41.8486 63.97 46.0866L66.102 46.2946C66.778 41.9266 66.778 38.8586 66.778 36.9346V35.6866H64.672ZM69.742 33.1126V56.6166H71.874V33.1126H69.742ZM71.302 42.9406V44.7606H75.644V42.9406H71.302ZM53.882 51.4946C58.042 51.4686 63.554 51.3646 68.416 50.5846L68.312 48.9986C63.554 49.5966 57.886 49.6746 53.622 49.6746L53.882 51.4946ZM83.546 35.1406V39.3526C83.546 43.6426 80.868 48.1666 77.462 49.8826L78.788 51.5986C82.506 49.6226 85.314 44.5526 85.314 39.3526V35.1406H83.546ZM83.936 35.1406V39.3526C83.936 44.3966 86.666 49.2066 90.306 51.1566L91.632 49.4406C88.304 47.7766 85.678 43.4866 85.678 39.3526V35.1406H83.936ZM93.686 33.1126V56.6166H95.87V33.1126H93.686ZM95.35 42.6286V44.4486H99.718V42.6286H95.35ZM114.172 39.5866V41.3546H120.1V39.5866H114.172ZM118.878 33.1386V50.3506H121.036V33.1386H118.878ZM106.034 54.3286V56.0966H121.686V54.3286H106.034ZM106.034 48.8426V55.2386H108.192V48.8426H106.034ZM107.698 36.0506V37.9486C107.698 41.2766 105.28 44.3966 101.77 45.6446L102.888 47.3606C106.814 45.9046 109.466 42.2126 109.466 37.9486V36.0506H107.698ZM108.114 36.0506V37.9226C108.114 41.9006 110.636 45.4366 114.458 46.8146L115.55 45.1246C112.144 43.9286 109.856 40.9646 109.856 37.9226V36.0506H108.114ZM102.446 35.0366V36.7786H115.004V35.0366H102.446Z" fill="white"/>
<ellipse cx="76.3724" cy="16.1029" rx="16.7763" ry="16.1029" fill="#D422FF"/>
<ellipse cx="109.925" cy="16.1029" rx="16.7763" ry="16.1029" fill="#2737FF"/>
<ellipse cx="42.8199" cy="16.1029" rx="16.7763" ry="16.1029" fill="#FF0043"/>
</svg>
